<mxfile host="65bd71144e">
    <diagram id="plQOBmxP-4VAvxYUzRpV" name="Page-1">
        <mxGraphModel dx="1298" dy="332" grid="1" gridSize="10" guides="1" tooltips="1" connect="1" arrows="1" fold="1" page="1" pageScale="1" pageWidth="850" pageHeight="1100" math="0" shadow="0">
            <root>
                <mxCell id="0"/>
                <mxCell id="1" parent="0"/>
                <mxCell id="2" value="database/connect/" style="rounded=0;whiteSpace=wrap;html=1;" vertex="1" parent="1">
                    <mxGeometry x="200" y="300" width="120" height="60" as="geometry"/>
                </mxCell>
                <mxCell id="3" value="" style="endArrow=classic;html=1;entryX=0;entryY=0.5;entryDx=0;entryDy=0;" edge="1" parent="1" target="2">
                    <mxGeometry width="50" height="50" relative="1" as="geometry">
                        <mxPoint x="70" y="330" as="sourcePoint"/>
                        <mxPoint x="420" y="270" as="targetPoint"/>
                    </mxGeometry>
                </mxCell>
                <mxCell id="5" value="database&amp;nbsp;&lt;br&gt;details" style="edgeLabel;html=1;align=center;verticalAlign=middle;resizable=0;points=[];" vertex="1" connectable="0" parent="3">
                    <mxGeometry x="-0.2554" relative="1" as="geometry">
                        <mxPoint as="offset"/>
                    </mxGeometry>
                </mxCell>
                <mxCell id="6" value="Session&lt;br&gt;Logger" style="shape=cylinder3;whiteSpace=wrap;html=1;boundedLbl=1;backgroundOutline=1;size=15;" vertex="1" parent="1">
                    <mxGeometry x="230" y="410" width="60" height="80" as="geometry"/>
                </mxCell>
                <mxCell id="8" value="" style="endArrow=openThin;dashed=1;html=1;exitX=0.5;exitY=1;exitDx=0;exitDy=0;endFill=0;" edge="1" parent="1" source="2" target="6">
                    <mxGeometry width="50" height="50" relative="1" as="geometry">
                        <mxPoint x="370" y="310" as="sourcePoint"/>
                        <mxPoint x="420" y="260" as="targetPoint"/>
                    </mxGeometry>
                </mxCell>
                <mxCell id="9" value="if valid, cache the session details" style="edgeLabel;html=1;align=center;verticalAlign=middle;resizable=0;points=[];" vertex="1" connectable="0" parent="8">
                    <mxGeometry x="-0.31" y="-1" relative="1" as="geometry">
                        <mxPoint as="offset"/>
                    </mxGeometry>
                </mxCell>
                <mxCell id="15" value="" style="curved=1;endArrow=none;html=1;entryX=0.008;entryY=0.961;entryDx=0;entryDy=0;entryPerimeter=0;endFill=0;startArrow=classicThin;startFill=1;dashed=1;" edge="1" parent="1" source="11" target="2">
                    <mxGeometry width="50" height="50" relative="1" as="geometry">
                        <mxPoint x="100" y="410" as="sourcePoint"/>
                        <mxPoint x="150" y="360" as="targetPoint"/>
                        <Array as="points">
                            <mxPoint x="120" y="400"/>
                            <mxPoint x="140" y="350"/>
                        </Array>
                    </mxGeometry>
                </mxCell>
                <mxCell id="16" value="session_id" style="text;html=1;strokeColor=none;fillColor=none;align=center;verticalAlign=middle;whiteSpace=wrap;rounded=0;" vertex="1" parent="1">
                    <mxGeometry x="100" y="380" width="40" height="20" as="geometry"/>
                </mxCell>
                <mxCell id="25" style="edgeStyle=none;html=1;entryX=0;entryY=0.5;entryDx=0;entryDy=0;entryPerimeter=0;startArrow=none;startFill=0;endArrow=open;endFill=0;dashed=1;" edge="1" parent="1" source="20" target="6">
                    <mxGeometry relative="1" as="geometry"/>
                </mxCell>
                <mxCell id="20" value="audio/upload/" style="rounded=0;whiteSpace=wrap;html=1;" vertex="1" parent="1">
                    <mxGeometry x="80" y="420" width="120" height="60" as="geometry"/>
                </mxCell>
                <mxCell id="26" value="audio/process/" style="rounded=0;whiteSpace=wrap;html=1;" vertex="1" parent="1">
                    <mxGeometry x="360" y="305" width="120" height="60" as="geometry"/>
                </mxCell>
                <mxCell id="27" value="" style="curved=1;endArrow=classic;html=1;entryX=0.607;entryY=-0.06;entryDx=0;entryDy=0;entryPerimeter=0;" edge="1" parent="1" source="11" target="26">
                    <mxGeometry width="50" height="50" relative="1" as="geometry">
                        <mxPoint x="260" y="420" as="sourcePoint"/>
                        <mxPoint x="310" y="370" as="targetPoint"/>
                        <Array as="points">
                            <mxPoint x="310" y="200"/>
                            <mxPoint x="420" y="230"/>
                        </Array>
                    </mxGeometry>
                </mxCell>
                <mxCell id="28" value="session_id" style="edgeLabel;html=1;align=center;verticalAlign=middle;resizable=0;points=[];" vertex="1" connectable="0" parent="27">
                    <mxGeometry x="0.2542" y="-4" relative="1" as="geometry">
                        <mxPoint as="offset"/>
                    </mxGeometry>
                </mxCell>
                <mxCell id="29" value="" style="endArrow=classic;startArrow=classic;html=1;entryX=0.5;entryY=1;entryDx=0;entryDy=0;exitX=1.05;exitY=0.424;exitDx=0;exitDy=0;exitPerimeter=0;dashed=1;" edge="1" parent="1" source="6" target="26">
                    <mxGeometry width="50" height="50" relative="1" as="geometry">
                        <mxPoint x="280" y="440" as="sourcePoint"/>
                        <mxPoint x="330" y="390" as="targetPoint"/>
                    </mxGeometry>
                </mxCell>
                <mxCell id="30" value="fetch audio" style="edgeLabel;html=1;align=center;verticalAlign=middle;resizable=0;points=[];" vertex="1" connectable="0" parent="29">
                    <mxGeometry x="0.3563" relative="1" as="geometry">
                        <mxPoint as="offset"/>
                    </mxGeometry>
                </mxCell>
                <mxCell id="31" value="" style="curved=1;endArrow=none;html=1;entryX=0.75;entryY=0;entryDx=0;entryDy=0;startArrow=open;startFill=0;endFill=0;dashed=1;" edge="1" parent="1" source="11" target="26">
                    <mxGeometry width="50" height="50" relative="1" as="geometry">
                        <mxPoint x="82.06999999999994" y="277.2432610004928" as="sourcePoint"/>
                        <mxPoint x="459.9599999999998" y="259.98" as="targetPoint"/>
                        <Array as="points">
                            <mxPoint x="320" y="160"/>
                            <mxPoint x="430" y="190"/>
                        </Array>
                    </mxGeometry>
                </mxCell>
                <mxCell id="32" value="text" style="edgeLabel;html=1;align=center;verticalAlign=middle;resizable=0;points=[];" vertex="1" connectable="0" parent="31">
                    <mxGeometry x="0.2542" y="-4" relative="1" as="geometry">
                        <mxPoint as="offset"/>
                    </mxGeometry>
                </mxCell>
                <mxCell id="33" value="" style="endArrow=classic;html=1;entryX=0;entryY=0.5;entryDx=0;entryDy=0;" edge="1" parent="1" target="20">
                    <mxGeometry width="50" height="50" relative="1" as="geometry">
                        <mxPoint x="30" y="450" as="sourcePoint"/>
                        <mxPoint x="350" y="360" as="targetPoint"/>
                    </mxGeometry>
                </mxCell>
                <mxCell id="34" value="" style="endArrow=none;html=1;" edge="1" parent="1" target="11">
                    <mxGeometry width="50" height="50" relative="1" as="geometry">
                        <mxPoint x="30" y="450" as="sourcePoint"/>
                        <mxPoint x="330" y="360" as="targetPoint"/>
                    </mxGeometry>
                </mxCell>
                <mxCell id="35" value="&lt;span style=&quot;color: rgba(0, 0, 0, 0); font-family: monospace; font-size: 0px; text-align: start; background-color: rgb(42, 37, 47);&quot;&gt;%3CmxGraphModel%3E%3Croot%3E%3CmxCell%20id%3D%220%22%2F%3E%3CmxCell%20id%3D%221%22%20parent%3D%220%22%2F%3E%3CmxCell%20id%3D%222%22%20value%3D%22audio_file%2C%20session_id%22%20style%3D%22edgeLabel%3Bhtml%3D1%3Balign%3Dcenter%3BverticalAlign%3Dmiddle%3Bresizable%3D0%3Bpoints%3D%5B%5D%3B%22%20vertex%3D%221%22%20connectable%3D%220%22%20parent%3D%221%22%3E%3CmxGeometry%20x%3D%2235.70218774318141%22%20y%3D%22486.3800863170054%22%20as%3D%22geometry%22%2F%3E%3C%2FmxCell%3E%3C%2Froot%3E%3C%2FmxGraphModel%3E&lt;/span&gt;&lt;span style=&quot;color: rgba(0, 0, 0, 0); font-family: monospace; font-size: 0px; text-align: start; background-color: rgb(42, 37, 47);&quot;&gt;%3CmxGraphModel%3E%3Croot%3E%3CmxCell%20id%3D%220%22%2F%3E%3CmxCell%20id%3D%221%22%20parent%3D%220%22%2F%3E%3CmxCell%20id%3D%222%22%20value%3D%22audio_file%2C%20session_id%22%20style%3D%22edgeLabel%3Bhtml%3D1%3Balign%3Dcenter%3BverticalAlign%3Dmiddle%3Bresizable%3D0%3Bpoints%3D%5B%5D%3B%22%20vertex%3D%221%22%20connectable%3D%220%22%20parent%3D%221%22%3E%3CmxGeometry%20x%3D%2235.70218774318141%22%20y%3D%22486.3800863170054%22%20as%3D%22geometry%22%2F%3E%3C%2FmxCell%3E%3C%2Froot%3E%3C%2FmxGraphModel%3Eaud&lt;/span&gt;" style="edgeLabel;html=1;align=center;verticalAlign=middle;resizable=0;points=[];" vertex="1" connectable="0" parent="34">
                    <mxGeometry x="0.3821" y="1" relative="1" as="geometry">
                        <mxPoint as="offset"/>
                    </mxGeometry>
                </mxCell>
                <mxCell id="36" value="audio_file, &lt;br&gt;session_id" style="edgeLabel;html=1;align=center;verticalAlign=middle;resizable=0;points=[];" vertex="1" connectable="0" parent="34">
                    <mxGeometry x="0.2729" relative="1" as="geometry">
                        <mxPoint as="offset"/>
                    </mxGeometry>
                </mxCell>
                <mxCell id="40" style="edgeStyle=none;html=1;entryX=0.5;entryY=1;entryDx=0;entryDy=0;entryPerimeter=0;startArrow=classic;startFill=1;endArrow=classic;endFill=1;dashed=1;" edge="1" parent="1" source="37" target="6">
                    <mxGeometry relative="1" as="geometry"/>
                </mxCell>
                <mxCell id="41" value="database_agent" style="edgeLabel;html=1;align=center;verticalAlign=middle;resizable=0;points=[];" vertex="1" connectable="0" parent="40">
                    <mxGeometry x="0.24" y="-2" relative="1" as="geometry">
                        <mxPoint as="offset"/>
                    </mxGeometry>
                </mxCell>
                <mxCell id="37" value="database/execute/" style="rounded=0;whiteSpace=wrap;html=1;" vertex="1" parent="1">
                    <mxGeometry x="200" y="560" width="120" height="60" as="geometry"/>
                </mxCell>
                <mxCell id="38" value="" style="curved=1;endArrow=none;html=1;exitX=-0.032;exitY=0.398;exitDx=0;exitDy=0;exitPerimeter=0;startArrow=classic;startFill=1;endFill=0;" edge="1" parent="1" source="37" target="11">
                    <mxGeometry width="50" height="50" relative="1" as="geometry">
                        <mxPoint x="120" y="530" as="sourcePoint"/>
                        <mxPoint x="170" y="480" as="targetPoint"/>
                        <Array as="points">
                            <mxPoint x="-70" y="480"/>
                        </Array>
                    </mxGeometry>
                </mxCell>
                <mxCell id="39" value="session_id, question(text)" style="edgeLabel;html=1;align=center;verticalAlign=middle;resizable=0;points=[];" vertex="1" connectable="0" parent="38">
                    <mxGeometry x="-0.4945" y="-6" relative="1" as="geometry">
                        <mxPoint as="offset"/>
                    </mxGeometry>
                </mxCell>
                <mxCell id="42" value="" style="curved=1;endArrow=classic;html=1;exitX=0.5;exitY=1;exitDx=0;exitDy=0;startArrow=none;startFill=0;endFill=1;dashed=1;" edge="1" parent="1" source="11">
                    <mxGeometry width="50" height="50" relative="1" as="geometry">
                        <mxPoint x="206.15999999999985" y="593.8799999999999" as="sourcePoint"/>
                        <mxPoint y="270" as="targetPoint"/>
                        <Array as="points"/>
                    </mxGeometry>
                </mxCell>
                <mxCell id="46" value="" style="curved=1;endArrow=classic;html=1;exitX=0.5;exitY=1;exitDx=0;exitDy=0;startArrow=none;startFill=0;endFill=1;dashed=1;" edge="1" parent="1" source="37" target="11">
                    <mxGeometry width="50" height="50" relative="1" as="geometry">
                        <mxPoint x="260" y="620" as="sourcePoint"/>
                        <mxPoint y="270" as="targetPoint"/>
                        <Array as="points">
                            <mxPoint x="150" y="680"/>
                            <mxPoint x="-100" y="490"/>
                        </Array>
                    </mxGeometry>
                </mxCell>
                <mxCell id="47" value="Final Result" style="edgeLabel;html=1;align=center;verticalAlign=middle;resizable=0;points=[];" vertex="1" connectable="0" parent="46">
                    <mxGeometry x="-0.3438" y="-8" relative="1" as="geometry">
                        <mxPoint as="offset"/>
                    </mxGeometry>
                </mxCell>
                <mxCell id="11" value="" style="verticalLabelPosition=bottom;sketch=0;aspect=fixed;html=1;verticalAlign=top;strokeColor=none;align=center;outlineConnect=0;shape=mxgraph.citrix.browser;" vertex="1" parent="1">
                    <mxGeometry y="265" width="85.17" height="130" as="geometry"/>
                </mxCell>
                <mxCell id="48" value="post" style="text;html=1;strokeColor=#A50040;fillColor=#d80073;align=center;verticalAlign=middle;whiteSpace=wrap;rounded=1;fontColor=#ffffff;" vertex="1" parent="1">
                    <mxGeometry x="210" y="570" width="50" height="10" as="geometry"/>
                </mxCell>
                <mxCell id="51" value="post" style="text;html=1;strokeColor=#A50040;fillColor=#d80073;align=center;verticalAlign=middle;whiteSpace=wrap;rounded=1;fontColor=#ffffff;" vertex="1" parent="1">
                    <mxGeometry x="100" y="430" width="50" height="10" as="geometry"/>
                </mxCell>
                <mxCell id="52" value="post" style="text;html=1;strokeColor=#A50040;fillColor=#d80073;align=center;verticalAlign=middle;whiteSpace=wrap;rounded=1;fontColor=#ffffff;" vertex="1" parent="1">
                    <mxGeometry x="210" y="310" width="50" height="10" as="geometry"/>
                </mxCell>
                <mxCell id="53" value="post" style="text;html=1;strokeColor=#A50040;fillColor=#d80073;align=center;verticalAlign=middle;whiteSpace=wrap;rounded=1;fontColor=#ffffff;" vertex="1" parent="1">
                    <mxGeometry x="380" y="310" width="50" height="10" as="geometry"/>
                </mxCell>
            </root>
        </mxGraphModel>
    </diagram>
</mxfile>